<mxfile host="Electron" modified="2024-02-09T05:43:32.553Z" agent="Mozilla/5.0 (Windows NT 10.0; Win64; x64) AppleWebKit/537.36 (KHTML, like Gecko) draw.io/23.0.2 Chrome/120.0.6099.109 Electron/28.1.0 Safari/537.36" etag="wf5NXxSFHofZpa-2iS-l" version="23.0.2" type="device">
  <diagram name="ページ1" id="_lpbjvuIAPRxVAizu4rP">
    <mxGraphModel dx="1434" dy="844" grid="1" gridSize="10" guides="1" tooltips="1" connect="1" arrows="1" fold="1" page="1" pageScale="1" pageWidth="1169" pageHeight="827" math="0" shadow="0">
      <root>
        <mxCell id="0" />
        <mxCell id="1" parent="0" />
        <mxCell id="twBeUbBtsLwBUZbS8eGF-85" value="&lt;div style=&quot;text-align: left;&quot;&gt;&lt;br&gt;&lt;/div&gt;" style="rounded=0;whiteSpace=wrap;html=1;" vertex="1" parent="1">
          <mxGeometry x="70" y="166" width="920" height="440" as="geometry" />
        </mxCell>
        <mxCell id="twBeUbBtsLwBUZbS8eGF-5" style="edgeStyle=orthogonalEdgeStyle;rounded=0;orthogonalLoop=1;jettySize=auto;html=1;exitX=1;exitY=0.25;exitDx=0;exitDy=0;entryX=0.014;entryY=0.66;entryDx=0;entryDy=0;entryPerimeter=0;" edge="1" parent="1" source="twBeUbBtsLwBUZbS8eGF-1" target="twBeUbBtsLwBUZbS8eGF-7">
          <mxGeometry relative="1" as="geometry">
            <mxPoint x="970" y="228" as="targetPoint" />
          </mxGeometry>
        </mxCell>
        <mxCell id="twBeUbBtsLwBUZbS8eGF-1" value="&lt;font style=&quot;font-size: 16px;&quot;&gt;seg7dec&lt;/font&gt;" style="rounded=0;whiteSpace=wrap;html=1;" vertex="1" parent="1">
          <mxGeometry x="740" y="196" width="150" height="130" as="geometry" />
        </mxCell>
        <mxCell id="twBeUbBtsLwBUZbS8eGF-60" style="edgeStyle=orthogonalEdgeStyle;rounded=0;orthogonalLoop=1;jettySize=auto;html=1;exitX=1;exitY=0.25;exitDx=0;exitDy=0;entryX=0;entryY=0.25;entryDx=0;entryDy=0;" edge="1" parent="1" source="twBeUbBtsLwBUZbS8eGF-4" target="twBeUbBtsLwBUZbS8eGF-1">
          <mxGeometry relative="1" as="geometry" />
        </mxCell>
        <mxCell id="twBeUbBtsLwBUZbS8eGF-61" style="edgeStyle=orthogonalEdgeStyle;rounded=0;orthogonalLoop=1;jettySize=auto;html=1;exitX=1;exitY=0.75;exitDx=0;exitDy=0;entryX=0;entryY=0.75;entryDx=0;entryDy=0;" edge="1" parent="1" source="twBeUbBtsLwBUZbS8eGF-4" target="twBeUbBtsLwBUZbS8eGF-1">
          <mxGeometry relative="1" as="geometry" />
        </mxCell>
        <mxCell id="twBeUbBtsLwBUZbS8eGF-4" value="&lt;font style=&quot;font-size: 16px;&quot;&gt;cnt60&lt;/font&gt;" style="rounded=0;whiteSpace=wrap;html=1;" vertex="1" parent="1">
          <mxGeometry x="480" y="196" width="150" height="130" as="geometry" />
        </mxCell>
        <mxCell id="twBeUbBtsLwBUZbS8eGF-16" value="" style="group" vertex="1" connectable="0" parent="1">
          <mxGeometry x="1010" y="176" width="60" height="80" as="geometry" />
        </mxCell>
        <mxCell id="twBeUbBtsLwBUZbS8eGF-7" value="" style="rounded=0;whiteSpace=wrap;html=1;" vertex="1" parent="twBeUbBtsLwBUZbS8eGF-16">
          <mxGeometry width="60" height="80" as="geometry" />
        </mxCell>
        <mxCell id="twBeUbBtsLwBUZbS8eGF-8" value="" style="endArrow=none;html=1;rounded=0;strokeColor=#FF0B03;strokeWidth=3;" edge="1" parent="twBeUbBtsLwBUZbS8eGF-16">
          <mxGeometry width="50" height="50" relative="1" as="geometry">
            <mxPoint x="10" y="10" as="sourcePoint" />
            <mxPoint x="50" y="10" as="targetPoint" />
          </mxGeometry>
        </mxCell>
        <mxCell id="twBeUbBtsLwBUZbS8eGF-9" value="" style="endArrow=none;html=1;rounded=0;strokeColor=#FF0B03;strokeWidth=3;" edge="1" parent="twBeUbBtsLwBUZbS8eGF-16">
          <mxGeometry width="50" height="50" relative="1" as="geometry">
            <mxPoint x="10" y="39.31" as="sourcePoint" />
            <mxPoint x="50" y="39.31" as="targetPoint" />
          </mxGeometry>
        </mxCell>
        <mxCell id="twBeUbBtsLwBUZbS8eGF-10" value="" style="endArrow=none;html=1;rounded=0;strokeColor=#FF0B03;strokeWidth=3;" edge="1" parent="twBeUbBtsLwBUZbS8eGF-16">
          <mxGeometry width="50" height="50" relative="1" as="geometry">
            <mxPoint x="10" y="70" as="sourcePoint" />
            <mxPoint x="50" y="70" as="targetPoint" />
          </mxGeometry>
        </mxCell>
        <mxCell id="twBeUbBtsLwBUZbS8eGF-11" value="" style="endArrow=none;html=1;rounded=0;strokeColor=#FF0B03;strokeWidth=3;" edge="1" parent="twBeUbBtsLwBUZbS8eGF-16">
          <mxGeometry width="50" height="50" relative="1" as="geometry">
            <mxPoint x="50" y="10" as="sourcePoint" />
            <mxPoint x="50" y="40" as="targetPoint" />
          </mxGeometry>
        </mxCell>
        <mxCell id="twBeUbBtsLwBUZbS8eGF-12" value="" style="endArrow=none;html=1;rounded=0;strokeColor=#FF0B03;strokeWidth=3;" edge="1" parent="twBeUbBtsLwBUZbS8eGF-16">
          <mxGeometry width="50" height="50" relative="1" as="geometry">
            <mxPoint x="50" y="40" as="sourcePoint" />
            <mxPoint x="50" y="70" as="targetPoint" />
          </mxGeometry>
        </mxCell>
        <mxCell id="twBeUbBtsLwBUZbS8eGF-13" value="" style="endArrow=none;html=1;rounded=0;strokeColor=#FF0B03;strokeWidth=3;" edge="1" parent="twBeUbBtsLwBUZbS8eGF-16">
          <mxGeometry width="50" height="50" relative="1" as="geometry">
            <mxPoint x="10" y="10" as="sourcePoint" />
            <mxPoint x="10" y="40" as="targetPoint" />
          </mxGeometry>
        </mxCell>
        <mxCell id="twBeUbBtsLwBUZbS8eGF-14" value="" style="endArrow=none;html=1;rounded=0;strokeColor=#FF0B03;strokeWidth=3;" edge="1" parent="twBeUbBtsLwBUZbS8eGF-16">
          <mxGeometry width="50" height="50" relative="1" as="geometry">
            <mxPoint x="10" y="40" as="sourcePoint" />
            <mxPoint x="10" y="70" as="targetPoint" />
          </mxGeometry>
        </mxCell>
        <mxCell id="twBeUbBtsLwBUZbS8eGF-20" value="" style="group" vertex="1" connectable="0" parent="1">
          <mxGeometry x="1010" y="266" width="60" height="80" as="geometry" />
        </mxCell>
        <mxCell id="twBeUbBtsLwBUZbS8eGF-21" value="" style="rounded=0;whiteSpace=wrap;html=1;" vertex="1" parent="twBeUbBtsLwBUZbS8eGF-20">
          <mxGeometry width="60" height="80" as="geometry" />
        </mxCell>
        <mxCell id="twBeUbBtsLwBUZbS8eGF-22" value="" style="endArrow=none;html=1;rounded=0;strokeColor=#FF0B03;strokeWidth=3;" edge="1" parent="twBeUbBtsLwBUZbS8eGF-20">
          <mxGeometry width="50" height="50" relative="1" as="geometry">
            <mxPoint x="10" y="10" as="sourcePoint" />
            <mxPoint x="50" y="10" as="targetPoint" />
          </mxGeometry>
        </mxCell>
        <mxCell id="twBeUbBtsLwBUZbS8eGF-23" value="" style="endArrow=none;html=1;rounded=0;strokeColor=#FF0B03;strokeWidth=3;" edge="1" parent="twBeUbBtsLwBUZbS8eGF-20">
          <mxGeometry width="50" height="50" relative="1" as="geometry">
            <mxPoint x="10" y="39.31" as="sourcePoint" />
            <mxPoint x="50" y="39.31" as="targetPoint" />
          </mxGeometry>
        </mxCell>
        <mxCell id="twBeUbBtsLwBUZbS8eGF-24" value="" style="endArrow=none;html=1;rounded=0;strokeColor=#FF0B03;strokeWidth=3;" edge="1" parent="twBeUbBtsLwBUZbS8eGF-20">
          <mxGeometry width="50" height="50" relative="1" as="geometry">
            <mxPoint x="10" y="70" as="sourcePoint" />
            <mxPoint x="50" y="70" as="targetPoint" />
          </mxGeometry>
        </mxCell>
        <mxCell id="twBeUbBtsLwBUZbS8eGF-25" value="" style="endArrow=none;html=1;rounded=0;strokeColor=#FF0B03;strokeWidth=3;" edge="1" parent="twBeUbBtsLwBUZbS8eGF-20">
          <mxGeometry width="50" height="50" relative="1" as="geometry">
            <mxPoint x="50" y="10" as="sourcePoint" />
            <mxPoint x="50" y="40" as="targetPoint" />
          </mxGeometry>
        </mxCell>
        <mxCell id="twBeUbBtsLwBUZbS8eGF-26" value="" style="endArrow=none;html=1;rounded=0;strokeColor=#FF0B03;strokeWidth=3;" edge="1" parent="twBeUbBtsLwBUZbS8eGF-20">
          <mxGeometry width="50" height="50" relative="1" as="geometry">
            <mxPoint x="50" y="40" as="sourcePoint" />
            <mxPoint x="50" y="70" as="targetPoint" />
          </mxGeometry>
        </mxCell>
        <mxCell id="twBeUbBtsLwBUZbS8eGF-27" value="" style="endArrow=none;html=1;rounded=0;strokeColor=#FF0B03;strokeWidth=3;" edge="1" parent="twBeUbBtsLwBUZbS8eGF-20">
          <mxGeometry width="50" height="50" relative="1" as="geometry">
            <mxPoint x="10" y="10" as="sourcePoint" />
            <mxPoint x="10" y="40" as="targetPoint" />
          </mxGeometry>
        </mxCell>
        <mxCell id="twBeUbBtsLwBUZbS8eGF-28" value="" style="endArrow=none;html=1;rounded=0;strokeColor=#FF0B03;strokeWidth=3;" edge="1" parent="twBeUbBtsLwBUZbS8eGF-20">
          <mxGeometry width="50" height="50" relative="1" as="geometry">
            <mxPoint x="10" y="40" as="sourcePoint" />
            <mxPoint x="10" y="70" as="targetPoint" />
          </mxGeometry>
        </mxCell>
        <mxCell id="twBeUbBtsLwBUZbS8eGF-29" style="edgeStyle=orthogonalEdgeStyle;rounded=0;orthogonalLoop=1;jettySize=auto;html=1;exitX=1;exitY=0.75;exitDx=0;exitDy=0;entryX=-0.042;entryY=0.348;entryDx=0;entryDy=0;entryPerimeter=0;" edge="1" parent="1" source="twBeUbBtsLwBUZbS8eGF-1" target="twBeUbBtsLwBUZbS8eGF-21">
          <mxGeometry relative="1" as="geometry" />
        </mxCell>
        <mxCell id="twBeUbBtsLwBUZbS8eGF-30" value="nSEG3" style="text;html=1;strokeColor=none;fillColor=none;align=center;verticalAlign=middle;whiteSpace=wrap;rounded=0;" vertex="1" parent="1">
          <mxGeometry x="1070" y="201" width="60" height="30" as="geometry" />
        </mxCell>
        <mxCell id="twBeUbBtsLwBUZbS8eGF-31" value="nSEG2" style="text;html=1;strokeColor=none;fillColor=none;align=center;verticalAlign=middle;whiteSpace=wrap;rounded=0;" vertex="1" parent="1">
          <mxGeometry x="1070" y="286" width="60" height="30" as="geometry" />
        </mxCell>
        <mxCell id="twBeUbBtsLwBUZbS8eGF-33" value="nSEGLOW[3:0]" style="text;html=1;strokeColor=none;fillColor=none;align=center;verticalAlign=middle;whiteSpace=wrap;rounded=0;" vertex="1" parent="1">
          <mxGeometry x="910" y="266" width="60" height="30" as="geometry" />
        </mxCell>
        <mxCell id="twBeUbBtsLwBUZbS8eGF-34" value="nSEGUP[2:0]" style="text;html=1;strokeColor=none;fillColor=none;align=center;verticalAlign=middle;whiteSpace=wrap;rounded=0;" vertex="1" parent="1">
          <mxGeometry x="910" y="201" width="60" height="30" as="geometry" />
        </mxCell>
        <mxCell id="twBeUbBtsLwBUZbS8eGF-35" style="edgeStyle=orthogonalEdgeStyle;rounded=0;orthogonalLoop=1;jettySize=auto;html=1;exitX=1;exitY=0.25;exitDx=0;exitDy=0;entryX=0.014;entryY=0.66;entryDx=0;entryDy=0;entryPerimeter=0;" edge="1" parent="1" source="twBeUbBtsLwBUZbS8eGF-36" target="twBeUbBtsLwBUZbS8eGF-38">
          <mxGeometry relative="1" as="geometry">
            <mxPoint x="970" y="418" as="targetPoint" />
          </mxGeometry>
        </mxCell>
        <mxCell id="twBeUbBtsLwBUZbS8eGF-36" value="&lt;font style=&quot;font-size: 16px;&quot;&gt;seg7dec&lt;/font&gt;" style="rounded=0;whiteSpace=wrap;html=1;" vertex="1" parent="1">
          <mxGeometry x="740" y="386" width="150" height="130" as="geometry" />
        </mxCell>
        <mxCell id="twBeUbBtsLwBUZbS8eGF-37" value="" style="group" vertex="1" connectable="0" parent="1">
          <mxGeometry x="1010" y="366" width="60" height="80" as="geometry" />
        </mxCell>
        <mxCell id="twBeUbBtsLwBUZbS8eGF-38" value="" style="rounded=0;whiteSpace=wrap;html=1;" vertex="1" parent="twBeUbBtsLwBUZbS8eGF-37">
          <mxGeometry width="60" height="80" as="geometry" />
        </mxCell>
        <mxCell id="twBeUbBtsLwBUZbS8eGF-39" value="" style="endArrow=none;html=1;rounded=0;strokeColor=#FF0B03;strokeWidth=3;" edge="1" parent="twBeUbBtsLwBUZbS8eGF-37">
          <mxGeometry width="50" height="50" relative="1" as="geometry">
            <mxPoint x="10" y="10" as="sourcePoint" />
            <mxPoint x="50" y="10" as="targetPoint" />
          </mxGeometry>
        </mxCell>
        <mxCell id="twBeUbBtsLwBUZbS8eGF-40" value="" style="endArrow=none;html=1;rounded=0;strokeColor=#FF0B03;strokeWidth=3;" edge="1" parent="twBeUbBtsLwBUZbS8eGF-37">
          <mxGeometry width="50" height="50" relative="1" as="geometry">
            <mxPoint x="10" y="39.31" as="sourcePoint" />
            <mxPoint x="50" y="39.31" as="targetPoint" />
          </mxGeometry>
        </mxCell>
        <mxCell id="twBeUbBtsLwBUZbS8eGF-41" value="" style="endArrow=none;html=1;rounded=0;strokeColor=#FF0B03;strokeWidth=3;" edge="1" parent="twBeUbBtsLwBUZbS8eGF-37">
          <mxGeometry width="50" height="50" relative="1" as="geometry">
            <mxPoint x="10" y="70" as="sourcePoint" />
            <mxPoint x="50" y="70" as="targetPoint" />
          </mxGeometry>
        </mxCell>
        <mxCell id="twBeUbBtsLwBUZbS8eGF-42" value="" style="endArrow=none;html=1;rounded=0;strokeColor=#FF0B03;strokeWidth=3;" edge="1" parent="twBeUbBtsLwBUZbS8eGF-37">
          <mxGeometry width="50" height="50" relative="1" as="geometry">
            <mxPoint x="50" y="10" as="sourcePoint" />
            <mxPoint x="50" y="40" as="targetPoint" />
          </mxGeometry>
        </mxCell>
        <mxCell id="twBeUbBtsLwBUZbS8eGF-43" value="" style="endArrow=none;html=1;rounded=0;strokeColor=#FF0B03;strokeWidth=3;" edge="1" parent="twBeUbBtsLwBUZbS8eGF-37">
          <mxGeometry width="50" height="50" relative="1" as="geometry">
            <mxPoint x="50" y="40" as="sourcePoint" />
            <mxPoint x="50" y="70" as="targetPoint" />
          </mxGeometry>
        </mxCell>
        <mxCell id="twBeUbBtsLwBUZbS8eGF-44" value="" style="endArrow=none;html=1;rounded=0;strokeColor=#FF0B03;strokeWidth=3;" edge="1" parent="twBeUbBtsLwBUZbS8eGF-37">
          <mxGeometry width="50" height="50" relative="1" as="geometry">
            <mxPoint x="10" y="10" as="sourcePoint" />
            <mxPoint x="10" y="40" as="targetPoint" />
          </mxGeometry>
        </mxCell>
        <mxCell id="twBeUbBtsLwBUZbS8eGF-45" value="" style="endArrow=none;html=1;rounded=0;strokeColor=#FF0B03;strokeWidth=3;" edge="1" parent="twBeUbBtsLwBUZbS8eGF-37">
          <mxGeometry width="50" height="50" relative="1" as="geometry">
            <mxPoint x="10" y="40" as="sourcePoint" />
            <mxPoint x="10" y="70" as="targetPoint" />
          </mxGeometry>
        </mxCell>
        <mxCell id="twBeUbBtsLwBUZbS8eGF-46" value="" style="group" vertex="1" connectable="0" parent="1">
          <mxGeometry x="1010" y="456" width="60" height="80" as="geometry" />
        </mxCell>
        <mxCell id="twBeUbBtsLwBUZbS8eGF-47" value="" style="rounded=0;whiteSpace=wrap;html=1;" vertex="1" parent="twBeUbBtsLwBUZbS8eGF-46">
          <mxGeometry width="60" height="80" as="geometry" />
        </mxCell>
        <mxCell id="twBeUbBtsLwBUZbS8eGF-48" value="" style="endArrow=none;html=1;rounded=0;strokeColor=#FF0B03;strokeWidth=3;" edge="1" parent="twBeUbBtsLwBUZbS8eGF-46">
          <mxGeometry width="50" height="50" relative="1" as="geometry">
            <mxPoint x="10" y="10" as="sourcePoint" />
            <mxPoint x="50" y="10" as="targetPoint" />
          </mxGeometry>
        </mxCell>
        <mxCell id="twBeUbBtsLwBUZbS8eGF-49" value="" style="endArrow=none;html=1;rounded=0;strokeColor=#FF0B03;strokeWidth=3;" edge="1" parent="twBeUbBtsLwBUZbS8eGF-46">
          <mxGeometry width="50" height="50" relative="1" as="geometry">
            <mxPoint x="10" y="39.31" as="sourcePoint" />
            <mxPoint x="50" y="39.31" as="targetPoint" />
          </mxGeometry>
        </mxCell>
        <mxCell id="twBeUbBtsLwBUZbS8eGF-50" value="" style="endArrow=none;html=1;rounded=0;strokeColor=#FF0B03;strokeWidth=3;" edge="1" parent="twBeUbBtsLwBUZbS8eGF-46">
          <mxGeometry width="50" height="50" relative="1" as="geometry">
            <mxPoint x="10" y="70" as="sourcePoint" />
            <mxPoint x="50" y="70" as="targetPoint" />
          </mxGeometry>
        </mxCell>
        <mxCell id="twBeUbBtsLwBUZbS8eGF-51" value="" style="endArrow=none;html=1;rounded=0;strokeColor=#FF0B03;strokeWidth=3;" edge="1" parent="twBeUbBtsLwBUZbS8eGF-46">
          <mxGeometry width="50" height="50" relative="1" as="geometry">
            <mxPoint x="50" y="10" as="sourcePoint" />
            <mxPoint x="50" y="40" as="targetPoint" />
          </mxGeometry>
        </mxCell>
        <mxCell id="twBeUbBtsLwBUZbS8eGF-52" value="" style="endArrow=none;html=1;rounded=0;strokeColor=#FF0B03;strokeWidth=3;" edge="1" parent="twBeUbBtsLwBUZbS8eGF-46">
          <mxGeometry width="50" height="50" relative="1" as="geometry">
            <mxPoint x="50" y="40" as="sourcePoint" />
            <mxPoint x="50" y="70" as="targetPoint" />
          </mxGeometry>
        </mxCell>
        <mxCell id="twBeUbBtsLwBUZbS8eGF-53" value="" style="endArrow=none;html=1;rounded=0;strokeColor=#FF0B03;strokeWidth=3;" edge="1" parent="twBeUbBtsLwBUZbS8eGF-46">
          <mxGeometry width="50" height="50" relative="1" as="geometry">
            <mxPoint x="10" y="10" as="sourcePoint" />
            <mxPoint x="10" y="40" as="targetPoint" />
          </mxGeometry>
        </mxCell>
        <mxCell id="twBeUbBtsLwBUZbS8eGF-54" value="" style="endArrow=none;html=1;rounded=0;strokeColor=#FF0B03;strokeWidth=3;" edge="1" parent="twBeUbBtsLwBUZbS8eGF-46">
          <mxGeometry width="50" height="50" relative="1" as="geometry">
            <mxPoint x="10" y="40" as="sourcePoint" />
            <mxPoint x="10" y="70" as="targetPoint" />
          </mxGeometry>
        </mxCell>
        <mxCell id="twBeUbBtsLwBUZbS8eGF-55" style="edgeStyle=orthogonalEdgeStyle;rounded=0;orthogonalLoop=1;jettySize=auto;html=1;exitX=1;exitY=0.75;exitDx=0;exitDy=0;entryX=-0.042;entryY=0.348;entryDx=0;entryDy=0;entryPerimeter=0;" edge="1" parent="1" source="twBeUbBtsLwBUZbS8eGF-36" target="twBeUbBtsLwBUZbS8eGF-47">
          <mxGeometry relative="1" as="geometry" />
        </mxCell>
        <mxCell id="twBeUbBtsLwBUZbS8eGF-56" value="nSEG1" style="text;html=1;strokeColor=none;fillColor=none;align=center;verticalAlign=middle;whiteSpace=wrap;rounded=0;" vertex="1" parent="1">
          <mxGeometry x="1070" y="391" width="60" height="30" as="geometry" />
        </mxCell>
        <mxCell id="twBeUbBtsLwBUZbS8eGF-57" value="nSEG0" style="text;html=1;strokeColor=none;fillColor=none;align=center;verticalAlign=middle;whiteSpace=wrap;rounded=0;" vertex="1" parent="1">
          <mxGeometry x="1070" y="476" width="60" height="30" as="geometry" />
        </mxCell>
        <mxCell id="twBeUbBtsLwBUZbS8eGF-58" value="nSEGLOW[3:0]" style="text;html=1;strokeColor=none;fillColor=none;align=center;verticalAlign=middle;whiteSpace=wrap;rounded=0;" vertex="1" parent="1">
          <mxGeometry x="910" y="456" width="60" height="30" as="geometry" />
        </mxCell>
        <mxCell id="twBeUbBtsLwBUZbS8eGF-59" value="nSEGUP[2:0]" style="text;html=1;strokeColor=none;fillColor=none;align=center;verticalAlign=middle;whiteSpace=wrap;rounded=0;" vertex="1" parent="1">
          <mxGeometry x="910" y="391" width="60" height="30" as="geometry" />
        </mxCell>
        <mxCell id="twBeUbBtsLwBUZbS8eGF-62" value="digitup[2:0]" style="text;html=1;strokeColor=none;fillColor=none;align=center;verticalAlign=middle;whiteSpace=wrap;rounded=0;" vertex="1" parent="1">
          <mxGeometry x="650" y="201" width="60" height="30" as="geometry" />
        </mxCell>
        <mxCell id="twBeUbBtsLwBUZbS8eGF-63" value="digitlow[3:0]" style="text;html=1;strokeColor=none;fillColor=none;align=center;verticalAlign=middle;whiteSpace=wrap;rounded=0;" vertex="1" parent="1">
          <mxGeometry x="650" y="266" width="60" height="30" as="geometry" />
        </mxCell>
        <mxCell id="twBeUbBtsLwBUZbS8eGF-65" style="edgeStyle=orthogonalEdgeStyle;rounded=0;orthogonalLoop=1;jettySize=auto;html=1;exitX=1;exitY=0.5;exitDx=0;exitDy=0;entryX=0;entryY=0.5;entryDx=0;entryDy=0;" edge="1" parent="1" source="twBeUbBtsLwBUZbS8eGF-64" target="twBeUbBtsLwBUZbS8eGF-36">
          <mxGeometry relative="1" as="geometry" />
        </mxCell>
        <mxCell id="twBeUbBtsLwBUZbS8eGF-66" style="edgeStyle=orthogonalEdgeStyle;rounded=0;orthogonalLoop=1;jettySize=auto;html=1;exitX=1;exitY=0.75;exitDx=0;exitDy=0;entryX=0;entryY=0.75;entryDx=0;entryDy=0;" edge="1" parent="1" source="twBeUbBtsLwBUZbS8eGF-64" target="twBeUbBtsLwBUZbS8eGF-36">
          <mxGeometry relative="1" as="geometry" />
        </mxCell>
        <mxCell id="twBeUbBtsLwBUZbS8eGF-64" value="&lt;font style=&quot;font-size: 16px;&quot;&gt;cnt60&lt;/font&gt;" style="rounded=0;whiteSpace=wrap;html=1;" vertex="1" parent="1">
          <mxGeometry x="310" y="386" width="150" height="130" as="geometry" />
        </mxCell>
        <mxCell id="twBeUbBtsLwBUZbS8eGF-67" style="edgeStyle=orthogonalEdgeStyle;rounded=0;orthogonalLoop=1;jettySize=auto;html=1;exitX=1;exitY=0.25;exitDx=0;exitDy=0;entryX=0.133;entryY=1;entryDx=0;entryDy=0;entryPerimeter=0;" edge="1" parent="1" source="twBeUbBtsLwBUZbS8eGF-64" target="twBeUbBtsLwBUZbS8eGF-4">
          <mxGeometry relative="1" as="geometry" />
        </mxCell>
        <mxCell id="twBeUbBtsLwBUZbS8eGF-68" value="ca" style="text;html=1;strokeColor=none;fillColor=none;align=center;verticalAlign=middle;whiteSpace=wrap;rounded=0;" vertex="1" parent="1">
          <mxGeometry x="450" y="391" width="60" height="30" as="geometry" />
        </mxCell>
        <mxCell id="twBeUbBtsLwBUZbS8eGF-69" value="digitlow[3:0]" style="text;html=1;strokeColor=none;fillColor=none;align=center;verticalAlign=middle;whiteSpace=wrap;rounded=0;" vertex="1" parent="1">
          <mxGeometry x="480" y="446" width="60" height="60" as="geometry" />
        </mxCell>
        <mxCell id="twBeUbBtsLwBUZbS8eGF-72" value="digitup[2:0]" style="text;html=1;strokeColor=none;fillColor=none;align=center;verticalAlign=middle;whiteSpace=wrap;rounded=0;" vertex="1" parent="1">
          <mxGeometry x="480" y="426" width="60" height="30" as="geometry" />
        </mxCell>
        <mxCell id="twBeUbBtsLwBUZbS8eGF-73" value="&lt;font style=&quot;font-size: 16px;&quot;&gt;cnt1sec&lt;/font&gt;" style="rounded=0;whiteSpace=wrap;html=1;" vertex="1" parent="1">
          <mxGeometry x="160" y="536" width="110" height="50" as="geometry" />
        </mxCell>
        <mxCell id="twBeUbBtsLwBUZbS8eGF-74" style="edgeStyle=orthogonalEdgeStyle;rounded=0;orthogonalLoop=1;jettySize=auto;html=1;exitX=1;exitY=0.5;exitDx=0;exitDy=0;entryX=0.111;entryY=0.99;entryDx=0;entryDy=0;entryPerimeter=0;" edge="1" parent="1" source="twBeUbBtsLwBUZbS8eGF-73" target="twBeUbBtsLwBUZbS8eGF-64">
          <mxGeometry relative="1" as="geometry" />
        </mxCell>
        <mxCell id="twBeUbBtsLwBUZbS8eGF-75" value="gen1hz" style="text;html=1;strokeColor=none;fillColor=none;align=center;verticalAlign=middle;whiteSpace=wrap;rounded=0;" vertex="1" parent="1">
          <mxGeometry x="270" y="536" width="60" height="30" as="geometry" />
        </mxCell>
        <mxCell id="twBeUbBtsLwBUZbS8eGF-76" value="" style="endArrow=classic;html=1;rounded=0;" edge="1" parent="1" source="twBeUbBtsLwBUZbS8eGF-78">
          <mxGeometry width="50" height="50" relative="1" as="geometry">
            <mxPoint x="130" y="626" as="sourcePoint" />
            <mxPoint x="580" y="326" as="targetPoint" />
            <Array as="points">
              <mxPoint x="370" y="626" />
              <mxPoint x="580" y="626" />
              <mxPoint x="580" y="326" />
            </Array>
          </mxGeometry>
        </mxCell>
        <mxCell id="twBeUbBtsLwBUZbS8eGF-77" value="" style="endArrow=classic;html=1;rounded=0;exitX=1;exitY=0.5;exitDx=0;exitDy=0;" edge="1" parent="1" source="twBeUbBtsLwBUZbS8eGF-79">
          <mxGeometry width="50" height="50" relative="1" as="geometry">
            <mxPoint x="130" y="646" as="sourcePoint" />
            <mxPoint x="610" y="326" as="targetPoint" />
            <Array as="points">
              <mxPoint x="370" y="646" />
              <mxPoint x="610" y="646" />
              <mxPoint x="610" y="501" />
              <mxPoint x="610" y="421" />
              <mxPoint x="610" y="348.5" />
            </Array>
          </mxGeometry>
        </mxCell>
        <mxCell id="twBeUbBtsLwBUZbS8eGF-78" value="CLK" style="text;html=1;strokeColor=none;fillColor=none;align=center;verticalAlign=middle;whiteSpace=wrap;rounded=0;" vertex="1" parent="1">
          <mxGeometry x="10" y="612" width="60" height="30" as="geometry" />
        </mxCell>
        <mxCell id="twBeUbBtsLwBUZbS8eGF-79" value="RST" style="text;html=1;strokeColor=none;fillColor=none;align=center;verticalAlign=middle;whiteSpace=wrap;rounded=0;" vertex="1" parent="1">
          <mxGeometry x="10" y="631" width="60" height="30" as="geometry" />
        </mxCell>
        <mxCell id="twBeUbBtsLwBUZbS8eGF-81" value="" style="endArrow=classic;html=1;rounded=0;" edge="1" parent="1">
          <mxGeometry width="50" height="50" relative="1" as="geometry">
            <mxPoint x="180" y="626" as="sourcePoint" />
            <mxPoint x="180" y="586" as="targetPoint" />
          </mxGeometry>
        </mxCell>
        <mxCell id="twBeUbBtsLwBUZbS8eGF-82" value="" style="endArrow=classic;html=1;rounded=0;" edge="1" parent="1" source="twBeUbBtsLwBUZbS8eGF-87">
          <mxGeometry width="50" height="50" relative="1" as="geometry">
            <mxPoint x="215" y="646" as="sourcePoint" />
            <mxPoint x="214.76000000000002" y="586" as="targetPoint" />
          </mxGeometry>
        </mxCell>
        <mxCell id="twBeUbBtsLwBUZbS8eGF-83" value="" style="endArrow=classic;html=1;rounded=0;" edge="1" parent="1">
          <mxGeometry width="50" height="50" relative="1" as="geometry">
            <mxPoint x="360" y="626" as="sourcePoint" />
            <mxPoint x="360" y="516" as="targetPoint" />
          </mxGeometry>
        </mxCell>
        <mxCell id="twBeUbBtsLwBUZbS8eGF-84" value="" style="endArrow=classic;html=1;rounded=0;" edge="1" parent="1">
          <mxGeometry width="50" height="50" relative="1" as="geometry">
            <mxPoint x="400" y="646" as="sourcePoint" />
            <mxPoint x="400" y="516" as="targetPoint" />
          </mxGeometry>
        </mxCell>
        <mxCell id="twBeUbBtsLwBUZbS8eGF-86" value="" style="ellipse;whiteSpace=wrap;html=1;fillColor=#000000;" vertex="1" parent="1">
          <mxGeometry x="354" y="622" width="10" height="10" as="geometry" />
        </mxCell>
        <mxCell id="twBeUbBtsLwBUZbS8eGF-91" value="" style="endArrow=classic;html=1;rounded=0;" edge="1" parent="1" target="twBeUbBtsLwBUZbS8eGF-87">
          <mxGeometry width="50" height="50" relative="1" as="geometry">
            <mxPoint x="215" y="646" as="sourcePoint" />
            <mxPoint x="214.76000000000002" y="586" as="targetPoint" />
          </mxGeometry>
        </mxCell>
        <mxCell id="twBeUbBtsLwBUZbS8eGF-87" value="" style="ellipse;whiteSpace=wrap;html=1;fillColor=#000000;" vertex="1" parent="1">
          <mxGeometry x="210" y="642" width="10" height="10" as="geometry" />
        </mxCell>
        <mxCell id="twBeUbBtsLwBUZbS8eGF-92" value="" style="ellipse;whiteSpace=wrap;html=1;fillColor=#000000;" vertex="1" parent="1">
          <mxGeometry x="395" y="641" width="10" height="10" as="geometry" />
        </mxCell>
        <mxCell id="twBeUbBtsLwBUZbS8eGF-93" value="" style="ellipse;whiteSpace=wrap;html=1;fillColor=#000000;" vertex="1" parent="1">
          <mxGeometry x="175" y="621" width="10" height="10" as="geometry" />
        </mxCell>
        <mxCell id="twBeUbBtsLwBUZbS8eGF-94" value="&lt;font style=&quot;font-size: 16px;&quot;&gt;de0_1hclock&lt;/font&gt;" style="text;html=1;strokeColor=none;fillColor=none;align=center;verticalAlign=middle;whiteSpace=wrap;rounded=0;" vertex="1" parent="1">
          <mxGeometry x="90" y="171" width="60" height="30" as="geometry" />
        </mxCell>
        <mxCell id="twBeUbBtsLwBUZbS8eGF-95" value="cnten" style="text;html=1;strokeColor=none;fillColor=none;align=center;verticalAlign=middle;whiteSpace=wrap;rounded=0;" vertex="1" parent="1">
          <mxGeometry x="300" y="486" width="60" height="30" as="geometry" />
        </mxCell>
        <mxCell id="twBeUbBtsLwBUZbS8eGF-96" value="cnten" style="text;html=1;strokeColor=none;fillColor=none;align=center;verticalAlign=middle;whiteSpace=wrap;rounded=0;" vertex="1" parent="1">
          <mxGeometry x="470" y="296" width="60" height="30" as="geometry" />
        </mxCell>
        <mxCell id="twBeUbBtsLwBUZbS8eGF-97" value="dinup[2:0]" style="text;html=1;strokeColor=none;fillColor=none;align=center;verticalAlign=middle;whiteSpace=wrap;rounded=0;" vertex="1" parent="1">
          <mxGeometry x="740" y="216" width="60" height="30" as="geometry" />
        </mxCell>
        <mxCell id="twBeUbBtsLwBUZbS8eGF-98" value="dinlow[3:0]" style="text;html=1;strokeColor=none;fillColor=none;align=center;verticalAlign=middle;whiteSpace=wrap;rounded=0;" vertex="1" parent="1">
          <mxGeometry x="740" y="276" width="60" height="30" as="geometry" />
        </mxCell>
        <mxCell id="twBeUbBtsLwBUZbS8eGF-99" value="dinup[2:0]" style="text;html=1;strokeColor=none;fillColor=none;align=center;verticalAlign=middle;whiteSpace=wrap;rounded=0;" vertex="1" parent="1">
          <mxGeometry x="740" y="416" width="60" height="30" as="geometry" />
        </mxCell>
        <mxCell id="twBeUbBtsLwBUZbS8eGF-100" value="dinlow[3:0]" style="text;html=1;strokeColor=none;fillColor=none;align=center;verticalAlign=middle;whiteSpace=wrap;rounded=0;" vertex="1" parent="1">
          <mxGeometry x="740" y="470" width="60" height="30" as="geometry" />
        </mxCell>
        <mxCell id="twBeUbBtsLwBUZbS8eGF-103" value="(minutes)" style="text;html=1;strokeColor=none;fillColor=none;align=center;verticalAlign=middle;whiteSpace=wrap;rounded=0;" vertex="1" parent="1">
          <mxGeometry x="785" y="171" width="60" height="30" as="geometry" />
        </mxCell>
        <mxCell id="twBeUbBtsLwBUZbS8eGF-104" value="(seconds)" style="text;html=1;strokeColor=none;fillColor=none;align=center;verticalAlign=middle;whiteSpace=wrap;rounded=0;" vertex="1" parent="1">
          <mxGeometry x="785" y="361" width="60" height="30" as="geometry" />
        </mxCell>
        <mxCell id="twBeUbBtsLwBUZbS8eGF-105" value="(minutes)" style="text;html=1;strokeColor=none;fillColor=none;align=center;verticalAlign=middle;whiteSpace=wrap;rounded=0;" vertex="1" parent="1">
          <mxGeometry x="525" y="171" width="60" height="30" as="geometry" />
        </mxCell>
        <mxCell id="twBeUbBtsLwBUZbS8eGF-106" value="(seconds)" style="text;html=1;strokeColor=none;fillColor=none;align=center;verticalAlign=middle;whiteSpace=wrap;rounded=0;" vertex="1" parent="1">
          <mxGeometry x="355" y="361" width="60" height="30" as="geometry" />
        </mxCell>
        <mxCell id="twBeUbBtsLwBUZbS8eGF-107" value="(7SEG LED)" style="text;html=1;strokeColor=none;fillColor=none;align=center;verticalAlign=middle;whiteSpace=wrap;rounded=0;" vertex="1" parent="1">
          <mxGeometry x="1005" y="146" width="70" height="30" as="geometry" />
        </mxCell>
      </root>
    </mxGraphModel>
  </diagram>
</mxfile>
